<mxfile host="app.diagrams.net" agent="Mozilla/5.0 (Windows NT 10.0; Win64; x64) AppleWebKit/537.36 (KHTML, like Gecko) Chrome/132.0.0.0 Safari/537.36" version="26.0.14">
  <diagram name="Page-1" id="CdmC7ZsFvyGAM0gkluLo">
    <mxGraphModel dx="1034" dy="1627" grid="1" gridSize="10" guides="1" tooltips="1" connect="1" arrows="1" fold="1" page="1" pageScale="1" pageWidth="827" pageHeight="1169" math="0" shadow="0">
      <root>
        <mxCell id="0" />
        <mxCell id="1" parent="0" />
        <mxCell id="Z7GBV9GChwNzg0yDUGyS-1" value="&lt;span data-lucid-content=&quot;{&amp;quot;t&amp;quot;:&amp;quot;(Library member)/Actor&amp;quot;,&amp;quot;m&amp;quot;:[{&amp;quot;s&amp;quot;:0,&amp;quot;n&amp;quot;:&amp;quot;c&amp;quot;,&amp;quot;v&amp;quot;:&amp;quot;#000000ff&amp;quot;,&amp;quot;e&amp;quot;:22},{&amp;quot;s&amp;quot;:0,&amp;quot;n&amp;quot;:&amp;quot;fsp&amp;quot;,&amp;quot;v&amp;quot;:&amp;quot;ss_presetShapeStyle1_textStyle&amp;quot;,&amp;quot;e&amp;quot;:22},{&amp;quot;s&amp;quot;:0,&amp;quot;n&amp;quot;:&amp;quot;s&amp;quot;,&amp;quot;v&amp;quot;:22.22222222222222,&amp;quot;e&amp;quot;:22}]}&quot; data-lucid-type=&quot;application/vnd.lucid.text&quot;&gt;&lt;span style=&quot;font-size: 16.6667px;&quot;&gt;(Library member)/Actor&lt;/span&gt;&lt;/span&gt;" style="shape=umlActor;verticalLabelPosition=bottom;verticalAlign=top;html=1;" vertex="1" parent="1">
          <mxGeometry x="70" y="-1150" width="60" height="90" as="geometry" />
        </mxCell>
        <mxCell id="Z7GBV9GChwNzg0yDUGyS-2" value="&lt;span data-lucid-content=&quot;{&amp;quot;t&amp;quot;:&amp;quot;System(Library System)&amp;quot;,&amp;quot;m&amp;quot;:[{&amp;quot;s&amp;quot;:0,&amp;quot;n&amp;quot;:&amp;quot;s&amp;quot;,&amp;quot;v&amp;quot;:22.22222222222222,&amp;quot;e&amp;quot;:22},{&amp;quot;s&amp;quot;:0,&amp;quot;n&amp;quot;:&amp;quot;fsp&amp;quot;,&amp;quot;v&amp;quot;:&amp;quot;ss_presetShapeStyle1_textStyle&amp;quot;,&amp;quot;e&amp;quot;:22},{&amp;quot;s&amp;quot;:0,&amp;quot;n&amp;quot;:&amp;quot;fsp2&amp;quot;,&amp;quot;v&amp;quot;:&amp;quot;ss_presetShapeStyle1_textStyle&amp;quot;,&amp;quot;e&amp;quot;:22}]}&quot; data-lucid-type=&quot;application/vnd.lucid.text&quot;&gt;&lt;span style=&quot;font-size: 16.6667px;&quot;&gt;System(Library System)&lt;/span&gt;&lt;/span&gt;" style="html=1;whiteSpace=wrap;" vertex="1" parent="1">
          <mxGeometry x="290" y="-1135" width="150" height="80" as="geometry" />
        </mxCell>
        <mxCell id="Z7GBV9GChwNzg0yDUGyS-3" value="&lt;span data-lucid-content=&quot;{&amp;quot;t&amp;quot;:&amp;quot;Entity/(Database)&amp;quot;,&amp;quot;m&amp;quot;:[{&amp;quot;s&amp;quot;:0,&amp;quot;n&amp;quot;:&amp;quot;s&amp;quot;,&amp;quot;v&amp;quot;:22.22222222222222,&amp;quot;e&amp;quot;:17},{&amp;quot;s&amp;quot;:0,&amp;quot;n&amp;quot;:&amp;quot;fsp&amp;quot;,&amp;quot;v&amp;quot;:&amp;quot;ss_presetShapeStyle1_textStyle&amp;quot;,&amp;quot;e&amp;quot;:17}]}&quot; data-lucid-type=&quot;application/vnd.lucid.text&quot;&gt;&lt;span style=&quot;font-size:16.666666666666664px;&quot;&gt;Entity/(Database)&lt;/span&gt;&lt;/span&gt;" style="html=1;whiteSpace=wrap;" vertex="1" parent="1">
          <mxGeometry x="580" y="-1135" width="150" height="80" as="geometry" />
        </mxCell>
        <mxCell id="Z7GBV9GChwNzg0yDUGyS-8" value=":Object" style="shape=umlLifeline;perimeter=lifelinePerimeter;whiteSpace=wrap;html=1;container=1;dropTarget=0;collapsible=0;recursiveResize=0;outlineConnect=0;portConstraint=eastwest;newEdgeStyle={&quot;curved&quot;:0,&quot;rounded&quot;:0};size=0;" vertex="1" parent="1">
          <mxGeometry x="315" y="-1050" width="100" height="490" as="geometry" />
        </mxCell>
        <mxCell id="Z7GBV9GChwNzg0yDUGyS-9" value=":Object" style="shape=umlLifeline;perimeter=lifelinePerimeter;whiteSpace=wrap;html=1;container=1;dropTarget=0;collapsible=0;recursiveResize=0;outlineConnect=0;portConstraint=eastwest;newEdgeStyle={&quot;curved&quot;:0,&quot;rounded&quot;:0};size=0;" vertex="1" parent="1">
          <mxGeometry x="605" y="-1050" width="100" height="466" as="geometry" />
        </mxCell>
        <mxCell id="Z7GBV9GChwNzg0yDUGyS-11" value="" style="shape=umlLifeline;perimeter=lifelinePerimeter;whiteSpace=wrap;html=1;container=1;dropTarget=0;collapsible=0;recursiveResize=0;outlineConnect=0;portConstraint=eastwest;newEdgeStyle={&quot;curved&quot;:0,&quot;rounded&quot;:0};participant=umlActor;size=0;" vertex="1" parent="1">
          <mxGeometry x="90" y="-1040" width="20" height="500" as="geometry" />
        </mxCell>
        <mxCell id="Z7GBV9GChwNzg0yDUGyS-13" value="dispatch" style="html=1;verticalAlign=bottom;endArrow=block;curved=0;rounded=0;" edge="1" parent="1" target="Z7GBV9GChwNzg0yDUGyS-8">
          <mxGeometry width="80" relative="1" as="geometry">
            <mxPoint x="100" y="-950" as="sourcePoint" />
            <mxPoint x="180" y="-950" as="targetPoint" />
          </mxGeometry>
        </mxCell>
        <mxCell id="Z7GBV9GChwNzg0yDUGyS-15" value="dispatch" style="html=1;verticalAlign=bottom;endArrow=block;curved=0;rounded=0;" edge="1" parent="1" target="Z7GBV9GChwNzg0yDUGyS-9">
          <mxGeometry width="80" relative="1" as="geometry">
            <mxPoint x="370" y="-920" as="sourcePoint" />
            <mxPoint x="450" y="-920" as="targetPoint" />
            <Array as="points" />
          </mxGeometry>
        </mxCell>
        <mxCell id="Z7GBV9GChwNzg0yDUGyS-16" value="return" style="html=1;verticalAlign=bottom;endArrow=open;dashed=1;endSize=8;curved=0;rounded=0;" edge="1" parent="1" source="Z7GBV9GChwNzg0yDUGyS-9" target="Z7GBV9GChwNzg0yDUGyS-8">
          <mxGeometry y="-10" relative="1" as="geometry">
            <mxPoint x="500" y="-830" as="sourcePoint" />
            <mxPoint x="420" y="-830" as="targetPoint" />
            <mxPoint as="offset" />
          </mxGeometry>
        </mxCell>
      </root>
    </mxGraphModel>
  </diagram>
</mxfile>
